<mxfile host="app.diagrams.net" modified="2021-01-06T14:32:36.474Z" agent="5.0 (Windows NT 10.0; Win64; x64) AppleWebKit/537.36 (KHTML, like Gecko) Chrome/86.0.4240.75 Safari/537.36" etag="axP_rZB-0wtXZVbsGW5s" version="14.1.3" type="github">
  <diagram id="gN73WktJIDfZ9wMkQkVr" name="Page-1">
    <mxGraphModel dx="868" dy="450" grid="1" gridSize="10" guides="1" tooltips="1" connect="1" arrows="1" fold="1" page="1" pageScale="1" pageWidth="827" pageHeight="1169" math="0" shadow="0">
      <root>
        <mxCell id="0" />
        <mxCell id="1" parent="0" />
        <mxCell id="dWKocmJfJ3Kj3rxEVmeW-7" style="edgeStyle=orthogonalEdgeStyle;rounded=0;orthogonalLoop=1;jettySize=auto;html=1;exitX=0;exitY=0.5;exitDx=0;exitDy=0;entryX=0;entryY=0.5;entryDx=0;entryDy=0;" edge="1" parent="1" source="dWKocmJfJ3Kj3rxEVmeW-1" target="dWKocmJfJ3Kj3rxEVmeW-2">
          <mxGeometry relative="1" as="geometry" />
        </mxCell>
        <mxCell id="dWKocmJfJ3Kj3rxEVmeW-19" style="edgeStyle=orthogonalEdgeStyle;rounded=0;orthogonalLoop=1;jettySize=auto;html=1;exitX=1;exitY=0.5;exitDx=0;exitDy=0;entryX=1;entryY=0.5;entryDx=0;entryDy=0;startArrow=none;startFill=0;" edge="1" parent="1" source="dWKocmJfJ3Kj3rxEVmeW-1" target="dWKocmJfJ3Kj3rxEVmeW-17">
          <mxGeometry relative="1" as="geometry" />
        </mxCell>
        <mxCell id="dWKocmJfJ3Kj3rxEVmeW-1" value="quickList" style="rounded=1;whiteSpace=wrap;html=1;fillColor=#f5f5f5;strokeColor=#666666;fontColor=#333333;" vertex="1" parent="1">
          <mxGeometry x="320" y="320" width="90" height="50" as="geometry" />
        </mxCell>
        <mxCell id="dWKocmJfJ3Kj3rxEVmeW-24" style="edgeStyle=orthogonalEdgeStyle;rounded=0;orthogonalLoop=1;jettySize=auto;html=1;exitX=1;exitY=0.5;exitDx=0;exitDy=0;entryX=0;entryY=0.5;entryDx=0;entryDy=0;startArrow=classic;startFill=1;" edge="1" parent="1" source="dWKocmJfJ3Kj3rxEVmeW-2" target="dWKocmJfJ3Kj3rxEVmeW-15">
          <mxGeometry relative="1" as="geometry" />
        </mxCell>
        <mxCell id="dWKocmJfJ3Kj3rxEVmeW-27" value="" style="edgeStyle=orthogonalEdgeStyle;rounded=0;orthogonalLoop=1;jettySize=auto;html=1;startArrow=none;startFill=0;" edge="1" parent="1" source="dWKocmJfJ3Kj3rxEVmeW-2" target="dWKocmJfJ3Kj3rxEVmeW-20">
          <mxGeometry relative="1" as="geometry" />
        </mxCell>
        <mxCell id="dWKocmJfJ3Kj3rxEVmeW-2" value="quickListNode" style="rounded=1;whiteSpace=wrap;html=1;fillColor=#ffe6cc;strokeColor=#d79b00;" vertex="1" parent="1">
          <mxGeometry x="150" y="440" width="90" height="50" as="geometry" />
        </mxCell>
        <mxCell id="dWKocmJfJ3Kj3rxEVmeW-12" value="head" style="text;html=1;strokeColor=none;fillColor=none;align=center;verticalAlign=middle;whiteSpace=wrap;rounded=0;" vertex="1" parent="1">
          <mxGeometry x="160" y="390" width="40" height="20" as="geometry" />
        </mxCell>
        <mxCell id="dWKocmJfJ3Kj3rxEVmeW-13" value="tail" style="text;html=1;strokeColor=none;fillColor=none;align=center;verticalAlign=middle;whiteSpace=wrap;rounded=0;" vertex="1" parent="1">
          <mxGeometry x="560" y="390" width="40" height="20" as="geometry" />
        </mxCell>
        <mxCell id="dWKocmJfJ3Kj3rxEVmeW-25" style="edgeStyle=orthogonalEdgeStyle;rounded=0;orthogonalLoop=1;jettySize=auto;html=1;exitX=1;exitY=0.5;exitDx=0;exitDy=0;entryX=0;entryY=0.5;entryDx=0;entryDy=0;startArrow=classic;startFill=1;" edge="1" parent="1" source="dWKocmJfJ3Kj3rxEVmeW-15" target="dWKocmJfJ3Kj3rxEVmeW-16">
          <mxGeometry relative="1" as="geometry" />
        </mxCell>
        <mxCell id="dWKocmJfJ3Kj3rxEVmeW-28" value="" style="edgeStyle=orthogonalEdgeStyle;rounded=0;orthogonalLoop=1;jettySize=auto;html=1;startArrow=none;startFill=0;" edge="1" parent="1" source="dWKocmJfJ3Kj3rxEVmeW-15" target="dWKocmJfJ3Kj3rxEVmeW-21">
          <mxGeometry relative="1" as="geometry" />
        </mxCell>
        <mxCell id="dWKocmJfJ3Kj3rxEVmeW-15" value="quickListNode" style="rounded=1;whiteSpace=wrap;html=1;fillColor=#ffe6cc;strokeColor=#d79b00;" vertex="1" parent="1">
          <mxGeometry x="270" y="440" width="90" height="50" as="geometry" />
        </mxCell>
        <mxCell id="dWKocmJfJ3Kj3rxEVmeW-26" style="edgeStyle=orthogonalEdgeStyle;rounded=0;orthogonalLoop=1;jettySize=auto;html=1;exitX=1;exitY=0.5;exitDx=0;exitDy=0;entryX=0;entryY=0.5;entryDx=0;entryDy=0;startArrow=classic;startFill=1;" edge="1" parent="1" source="dWKocmJfJ3Kj3rxEVmeW-16" target="dWKocmJfJ3Kj3rxEVmeW-17">
          <mxGeometry relative="1" as="geometry" />
        </mxCell>
        <mxCell id="dWKocmJfJ3Kj3rxEVmeW-29" value="" style="edgeStyle=orthogonalEdgeStyle;rounded=0;orthogonalLoop=1;jettySize=auto;html=1;startArrow=none;startFill=0;" edge="1" parent="1" source="dWKocmJfJ3Kj3rxEVmeW-16" target="dWKocmJfJ3Kj3rxEVmeW-22">
          <mxGeometry relative="1" as="geometry" />
        </mxCell>
        <mxCell id="dWKocmJfJ3Kj3rxEVmeW-16" value="quickListNode" style="rounded=1;whiteSpace=wrap;html=1;fillColor=#ffe6cc;strokeColor=#d79b00;" vertex="1" parent="1">
          <mxGeometry x="390" y="440" width="90" height="50" as="geometry" />
        </mxCell>
        <mxCell id="dWKocmJfJ3Kj3rxEVmeW-30" value="" style="edgeStyle=orthogonalEdgeStyle;rounded=0;orthogonalLoop=1;jettySize=auto;html=1;startArrow=none;startFill=0;" edge="1" parent="1" source="dWKocmJfJ3Kj3rxEVmeW-17" target="dWKocmJfJ3Kj3rxEVmeW-23">
          <mxGeometry relative="1" as="geometry" />
        </mxCell>
        <mxCell id="dWKocmJfJ3Kj3rxEVmeW-17" value="quickListNode" style="rounded=1;whiteSpace=wrap;html=1;fillColor=#ffe6cc;strokeColor=#d79b00;" vertex="1" parent="1">
          <mxGeometry x="510" y="440" width="90" height="50" as="geometry" />
        </mxCell>
        <mxCell id="dWKocmJfJ3Kj3rxEVmeW-20" value="zipList" style="rounded=1;whiteSpace=wrap;html=1;fillColor=#e1d5e7;strokeColor=#9673a6;" vertex="1" parent="1">
          <mxGeometry x="150" y="530" width="90" height="50" as="geometry" />
        </mxCell>
        <mxCell id="dWKocmJfJ3Kj3rxEVmeW-21" value="zipList" style="rounded=1;whiteSpace=wrap;html=1;fillColor=#e1d5e7;strokeColor=#9673a6;" vertex="1" parent="1">
          <mxGeometry x="270" y="530" width="90" height="50" as="geometry" />
        </mxCell>
        <mxCell id="dWKocmJfJ3Kj3rxEVmeW-22" value="zipList" style="rounded=1;whiteSpace=wrap;html=1;fillColor=#e1d5e7;strokeColor=#9673a6;" vertex="1" parent="1">
          <mxGeometry x="390" y="530" width="90" height="50" as="geometry" />
        </mxCell>
        <mxCell id="dWKocmJfJ3Kj3rxEVmeW-23" value="zipList" style="rounded=1;whiteSpace=wrap;html=1;fillColor=#e1d5e7;strokeColor=#9673a6;" vertex="1" parent="1">
          <mxGeometry x="510" y="530" width="90" height="50" as="geometry" />
        </mxCell>
      </root>
    </mxGraphModel>
  </diagram>
</mxfile>
